####
#
# OBJ File Generated by Meshlab
#
####
#
# Derived from: https://www.printables.com/model/347282-low-poly-space-fighter
#
####
# Object FIGHTER.obj
#
# Vertices: 47
# Faces: 90
#
####
vn -3.4018998 3.5751498 2.6767652
v -4.4443488 1.3382829 17.8263092
vn -2.1333382 2.4088588 1.3289045
v -4.4441490 2.8197019 16.8924503
vn -1.0208037 0.5598292 -1.1867388
v -4.4442520 2.8197019 0.6445675
vn -3.0704584 1.0878552 -3.8500350
v -4.4442520 1.3382840 2.1636910
vn -0.0000959 4.8164191 2.7108877
v 0.0000003 1.3382820 17.8265800
vn 2.1332302 2.4084799 1.3288602
v 4.4442229 2.8197010 16.8927803
vn 0.0004023 2.1836762 -2.8257439
v 0.0010457 2.8198650 -0.2842112
vn -1.0380607 -0.5694798 -1.1908052
v -4.4442520 -1.6245490 0.6445656
vn -0.0004631 -2.1019657 -2.8005717
v 0.0001270 -1.6180240 -0.3485187
vn -1.5820317 -1.5809720 1.5706255
v -4.4441919 -1.6245520 18.1524391
vn 0.0237672 -3.3245194 3.1301391
v 0.0000664 -0.1238832 18.1970291
vn -4.2601452 -2.1962132 2.7365808
v -4.4442520 -0.1431344 18.1532593
vn -2.0506673 0.7248015 0.6176933
v -4.4442792 1.1697080 23.4049301
vn -2.4143214 3.5917773 1.1119934
v -1.4814169 1.3382810 27.7073898
vn 0.0000000 0.2396437 0.3903068
v 0.0000000 0.8594590 40.0000000
vn -3.0843546 -1.0831947 -3.8392797
v -4.4442701 -0.1431324 2.1637449
vn -2.5238433 -2.2746305 1.8401597
v -13.8425102 -0.1431321 10.3960600
vn -1.1795957 -1.3853748 -2.2414713
v -13.8424501 -0.1431323 0.0000019
vn -1.2247124 1.4211273 -2.2097664
v -13.8424501 1.3382840 0.0000018
vn -2.5582328 2.2658784 1.8667717
v -13.8425198 1.3382810 10.3961000
vn -5.3574429 0.6172926 -0.1014912
v -15.0609798 0.8136907 4.7767649
vn 0.0373002 -0.1346897 0.1412928
v -12.9767704 -4.3138380 10.4141502
vn 0.0755634 0.1300654 -0.1594224
v -12.3928204 4.3238778 -0.0001014
vn 0.0419686 -0.1491893 -0.1490357
v -12.9731598 -4.3234038 0.0001806
vn 0.0692071 0.1527303 0.1831449
v -12.6857204 4.3242388 10.3957796
vn -2.4287162 -3.5839772 1.0677029
v -1.4814169 -0.1431363 27.7073898
vn 0.0000002 -0.2396478 0.3901829
v 0.0000000 0.3356818 40.0000000
vn 1.0207968 0.5597539 -1.1866652
v 4.4442520 2.8197019 0.6445675
vn 3.0741870 1.0885488 -3.8468218
v 4.4442921 1.3382840 2.1640229
vn 3.4022384 3.5750360 2.6755910
v 4.4442520 1.3382820 17.8265991
vn 1.0389843 -0.5695074 -1.1917068
v 4.4442520 -1.6245490 0.6445656
vn 1.5713325 -1.5716451 1.5707999
v 4.4442210 -1.6245520 18.1524601
vn 4.2461743 -2.2059870 2.7368298
v 4.4442229 -0.1431347 18.1532593
vn 2.0506654 0.7247905 0.6176845
v 4.4442611 1.1696990 23.4049606
vn 2.4143214 3.5917778 1.1119924
v 1.4814169 1.3382810 27.7073898
vn 3.0843523 -1.0823989 -3.8394954
v 4.4442520 -0.1431326 2.1636910
vn -1.8816545 -0.9778119 -4.9373446
v 13.8424797 -0.1431314 0.0008883
vn -1.7960610 0.7206817 -5.0486622
v 13.8424397 1.3382850 0.0001840
vn 1.4242324 -2.1018782 4.0113578
v 13.8424501 -0.1431338 10.3965101
vn 2.4823203 1.6661577 1.1949399
v 14.8453197 1.3058760 9.7731504
vn -1.4870291 -1.0659564 1.2248670
v 12.4299898 -4.3261719 10.3961000
vn 2.7415736 0.3465009 -2.1552353
v 15.0624104 0.8107792 0.0001918
vn 1.5130000 -1.9864939 1.8505350
v 13.3318005 -4.3261180 10.3963099
vn -0.0273749 0.0404346 0.0742029
v 12.5480604 4.3226428 10.3965702
vn -0.1041194 -0.3519706 -0.3120912
v 12.9732704 -4.3231292 -0.0001371
vn -0.1637715 0.2891968 -0.2119491
v 12.5471497 4.3244600 0.0000333
vn 2.4286933 -3.5839739 1.0677005
v 1.4814169 -0.1431363 27.7073898
# 47 vertices, 0 vertices normals

f 1//1 2//2 3//3
f 3//3 4//4 1//1
f 5//5 6//6 2//2
f 2//2 1//1 5//5
f 7//7 3//3 2//2
f 8//8 9//9 10//10
f 10//10 11//11 12//12
f 1//1 12//12 13//13
f 14//14 15//15 5//5
f 8//8 16//16 9//9
f 16//16 4//4 9//9
f 16//16 17//17 18//18
f 4//4 3//3 7//7
f 7//7 9//9 4//4
f 19//19 4//4 16//16
f 16//16 18//18 19//19
f 16//16 8//8 10//10
f 20//20 1//1 4//4
f 4//4 19//19 20//20
f 10//10 12//12 16//16
f 17//17 12//12 1//1
f 1//1 20//20 17//17
f 17//17 16//16 12//12
f 17//17 20//20 21//21
f 19//19 18//18 21//21
f 17//17 21//21 22//22
f 20//20 19//19 23//23
f 18//18 17//17 22//22
f 22//22 24//24 18//18
f 23//23 25//25 20//20
f 19//19 21//21 23//23
f 21//21 20//20 25//25
f 25//25 23//23 21//21
f 24//24 22//22 21//21
f 21//21 18//18 24//24
f 26//26 14//14 13//13
f 27//27 15//15 14//14
f 14//14 26//26 27//27
f 27//27 26//26 11//11
f 5//5 1//1 13//13
f 13//13 14//14 5//5
f 12//12 11//11 26//26
f 26//26 13//13 12//12
f 28//28 6//6 29//29
f 5//5 30//30 6//6
f 7//7 2//2 6//6
f 6//6 28//28 7//7
f 31//31 32//32 10//10
f 10//10 9//9 31//31
f 10//10 32//32 33//33
f 33//33 11//11 10//10
f 34//34 33//33 30//30
f 5//5 15//15 35//35
f 9//9 36//36 31//31
f 9//9 29//29 36//36
f 33//33 36//36 37//37
f 29//29 9//9 7//7
f 7//7 28//28 29//29
f 36//36 29//29 38//38
f 38//38 37//37 36//36
f 32//32 31//31 36//36
f 36//36 33//33 32//32
f 30//30 33//33 39//39
f 39//39 40//40 30//30
f 30//30 29//29 6//6
f 29//29 30//30 40//40
f 40//40 38//38 29//29
f 37//37 39//39 33//33
f 41//41 39//39 37//37
f 42//42 37//37 38//38
f 39//39 41//41 43//43
f 43//43 40//40 39//39
f 44//44 40//40 42//42
f 37//37 45//45 41//41
f 38//38 44//44 46//46
f 46//46 42//42 38//38
f 44//44 38//38 40//40
f 42//42 46//46 44//44
f 43//43 41//41 45//45
f 42//42 43//43 45//45
f 43//43 42//42 40//40
f 45//45 37//37 42//42
f 34//34 35//35 47//47
f 27//27 47//47 35//35
f 35//35 15//15 27//27
f 11//11 47//47 27//27
f 5//5 35//35 34//34
f 34//34 30//30 5//5
f 33//33 34//34 47//47
f 47//47 11//11 33//33
# 90 faces, 0 coords texture

# End of File
